<svg width="179" height="32" viewBox="0 0 179 32" fill="none" xmlns="http://www.w3.org/2000/svg">
<g clip-path="url(#clip0_502_893)">
<path d="M15.7333 3.07691H16.0006C16.94 3.27028 17.41 3.70976 17.4107 4.39536V15.2696L17.4698 17.1296C17.4698 18.661 16.8364 20.255 15.5696 21.9115C13.7786 23.8101 11.7596 24.7594 9.51275 24.7594H9.06724C6.87007 24.7594 4.83247 23.7567 2.95441 21.7513C1.79608 20.1529 1.21692 18.5011 1.21692 16.7959C1.21692 14.2192 2.38492 12.0536 4.72091 10.299C6.20595 9.3301 7.75005 8.84565 9.35319 8.84565C11.4122 8.84565 13.0948 9.41732 14.4009 10.5607V5.34363L14.3419 4.39941C14.6265 3.51706 15.0903 3.07623 15.7333 3.07691ZM4.2868 16.6357V16.9115C4.2868 18.9663 5.39194 20.4974 7.60223 21.5048C8.11069 21.6585 8.63878 21.7411 9.17084 21.7503H9.51275C11.5517 21.7503 13.0958 20.6749 14.145 18.5241C14.3129 17.875 14.3968 17.376 14.3968 17.0272V16.6935C14.3968 14.6489 13.2785 13.1178 11.042 12.1002C10.3596 11.9359 9.82979 11.8538 9.45266 11.8538H9.2299C7.19091 11.8538 5.64716 12.9146 4.59866 15.0363C4.40538 15.549 4.30001 16.0894 4.2868 16.6357Z" fill="white"/>
<path d="M21.656 4.9231C22.6114 5.16979 23.0891 5.63259 23.0891 6.3115V6.63617C23.0891 7.41472 22.573 7.87752 21.5408 8.02457C20.8001 8.02457 20.313 7.50921 20.0793 6.47847C20.2813 5.44087 20.8069 4.92241 21.656 4.9231ZM21.656 8.70382C22.6114 8.95051 23.0891 9.41331 23.0891 10.0922V23.3557C23.0891 24.1535 22.6067 24.6345 21.6418 24.7987H21.555C20.7638 24.7987 20.2766 24.2967 20.0935 23.2928V10.388C20.2086 9.26523 20.7294 8.70382 21.656 8.70382Z" fill="white"/>
<path d="M32.911 8.61548C34.9641 8.61548 36.8406 9.41424 38.5403 11.0118C38.6918 11.2706 38.7773 11.5642 38.789 11.8656V11.9701C38.6129 12.9489 38.1193 13.4383 37.308 13.4383H37.2496C36.8873 13.4383 36.2224 13.0639 35.2548 12.3149C34.5828 11.949 33.8343 11.7536 33.0727 11.7454H32.7492C30.8039 11.7454 29.3276 12.7939 28.3205 14.8909C28.1026 15.5062 27.9837 16.1535 27.9684 16.8075C27.9684 18.8342 28.9998 20.3767 31.0625 21.435C31.6904 21.6784 32.3571 21.8003 33.0287 21.7945C34.1818 21.7945 35.3551 21.2803 36.5485 20.252L37.1493 20.1172H37.3694C38.1513 20.1172 38.6256 20.6049 38.7921 21.5802V21.6733C38.7921 22.6486 37.5113 23.6369 34.9498 24.638C34.1085 24.7976 33.4828 24.8773 33.0727 24.8773H32.6326C30.4811 24.8773 28.4863 23.8494 26.6481 21.7934C25.514 20.1667 24.947 18.4841 24.947 16.7459C24.947 14.0985 26.091 11.8823 28.3789 10.0973C29.8357 9.10943 31.3464 8.61548 32.911 8.61548Z" fill="white"/>
<path d="M47.3727 9.23083C49.399 9.23083 51.2284 9.99599 52.8609 11.5263C54.4211 13.1641 55.2012 15.0093 55.2012 17.0621C55.2012 19.9963 53.8166 22.3016 51.0473 23.9779C49.8377 24.5862 48.6668 24.8904 47.5348 24.8904H47.0961C44.9854 24.8904 43.0267 23.9025 41.2199 21.9268C40.1075 20.358 39.551 18.7357 39.5503 17.0601C39.5503 14.5119 40.6732 12.381 42.919 10.6675C44.3529 9.70973 45.8375 9.23083 47.3727 9.23083ZM42.5816 16.9019V17.1635C42.5816 18.975 43.4576 20.3796 45.2097 21.3773C45.8288 21.6968 46.5161 21.8614 47.2126 21.8568H47.5328C49.4003 21.8568 50.8326 20.8832 51.8295 18.9358C52.0459 18.3698 52.1591 17.7695 52.1638 17.1635V16.9019C52.1638 15.4 51.4718 14.1313 50.0879 13.0958C49.2714 12.5393 48.3026 12.2499 47.315 12.2674C45.2725 12.2674 43.7724 13.3425 42.8146 15.4926C42.6672 15.9482 42.5887 16.4232 42.5816 16.9019Z" fill="white"/>
<path d="M70.4941 3.07691H70.7614C71.7022 3.27028 72.1722 3.70976 72.1715 4.39536V15.2696L72.2316 17.1296C72.2316 18.661 71.5982 20.255 70.3315 21.9115C68.5391 23.8101 66.5198 24.7594 64.2736 24.7594H63.828C61.6302 24.7594 59.5926 23.7567 57.7152 21.7513C56.5576 20.1529 55.9788 18.5011 55.9788 16.7959C55.9788 14.2192 57.1468 12.0536 59.4828 10.299C60.9664 9.3301 62.5102 8.84565 64.114 8.84565C66.173 8.84565 67.8556 9.41732 69.1617 10.5607V5.34363L69.1027 4.39941C69.3873 3.51706 69.8511 3.07623 70.4941 3.07691ZM59.0476 16.6357V16.9115C59.0476 18.9663 60.1527 20.4974 62.363 21.5048C62.8715 21.6587 63.3996 21.7413 63.9317 21.7503H64.2736C66.3125 21.7503 67.8566 20.6749 68.9058 18.5241C69.0737 17.875 69.1576 17.376 69.1576 17.0272V16.6935C69.1576 14.6489 68.0393 13.1178 65.8028 12.1002C65.1204 11.9359 64.5909 11.8538 64.2145 11.8538H63.9917C61.9528 11.8538 60.4087 12.9146 59.3595 15.0363C59.1662 15.549 59.0608 16.0894 59.0476 16.6357Z" fill="white"/>
<path d="M76.4179 4.9231C77.372 5.16979 77.8491 5.63259 77.8491 6.3115V6.63617C77.8491 7.41472 77.3333 7.87752 76.3018 8.02457C75.5616 8.02457 75.0748 7.50921 74.8413 6.47847C75.0445 5.44087 75.57 4.92241 76.4179 4.9231ZM76.4179 8.70382C77.3734 8.95051 77.8511 9.41503 77.8511 10.0974V23.3557C77.8511 24.1535 77.369 24.6345 76.4047 24.7987H76.3169C75.5263 24.7987 75.0395 24.2967 74.8565 23.2928V10.388C74.9735 9.26523 75.494 8.70382 76.4179 8.70382Z" fill="white"/>
<path d="M81.9306 9.23083C82.892 9.47232 83.373 9.92536 83.3736 10.59V10.8069C84.5633 9.75686 86.17 9.23151 88.1937 9.23083C90.4139 9.23083 92.3826 10.1275 94.0996 11.9208C95.3454 13.4242 95.9683 15.0097 95.9683 16.6772V23.5454C95.9683 24.2584 95.4838 24.7064 94.5149 24.8894H94.3654C93.3965 24.7172 92.912 24.2305 92.912 23.4294V17.3855C92.912 14.8805 91.8161 13.2372 89.6242 12.4556C89.159 12.3304 88.6794 12.2626 88.1968 12.2538H88.0328C86.1981 12.2538 84.7748 13.1841 83.7629 15.0447C83.5055 15.5935 83.3768 16.5188 83.3768 17.8204V23.4889C83.3768 24.2598 82.8923 24.727 81.9234 24.8904H81.8196C81.0064 24.8904 80.5056 24.399 80.3174 23.4163V10.8795C80.4302 9.7804 80.9679 9.23083 81.9306 9.23083Z" fill="white"/>
<path d="M96.9282 1.84619V30.1539H113.783V1.84619H96.9282ZM113.133 17.3883V23.9954C113.133 25.3783 112.135 26.8444 110.138 28.3936C108.616 29.4036 107.022 29.9086 105.356 29.9086C102.506 29.9086 100.151 28.6238 98.2907 26.0544C97.9214 25.4276 97.7371 24.9828 97.7378 24.72V24.5578C97.7378 23.8414 98.1933 23.3805 99.1043 23.1752H99.3072C99.995 23.1752 100.533 23.7049 100.92 24.7641C102.103 26.2641 103.581 27.0141 105.355 27.0141C107.477 27.0141 109.066 26.053 110.123 24.1308L110.21 23.5427V22.116C109.018 23.232 107.454 23.7901 105.516 23.7901H105.08C102.967 23.7901 101.005 22.7896 99.1956 20.7888C98.081 19.2006 97.5237 17.5583 97.5237 15.862C97.5237 13.2836 98.6481 11.1264 100.897 9.39039C102.331 8.4194 103.819 7.9339 105.361 7.9339C107.696 7.9339 109.717 8.91447 111.422 10.8756C112.605 12.5138 113.197 14.0681 113.197 15.5387L113.133 17.3883Z" fill="white"/>
<path d="M106.984 11.1112C106.321 10.9581 105.811 10.8813 105.456 10.8806H105.254C103.303 10.8806 101.827 11.9146 100.828 13.9824C100.648 14.4825 100.551 15.0085 100.54 15.5399V15.7996C100.54 17.8004 101.592 19.2914 103.697 20.2726C104.182 20.4258 104.687 20.5082 105.196 20.5173H105.514C107.465 20.5173 108.941 19.4689 109.941 17.3722C110.094 16.7466 110.171 16.2611 110.171 15.9154V15.5832C110.171 13.5932 109.108 12.1025 106.984 11.1112Z" fill="white"/>
</g>
<path d="M131.702 7.54545H134.327V19.9205C134.327 21.0398 134.105 21.9972 133.662 22.7926C133.224 23.5881 132.608 24.196 131.812 24.6165C131.017 25.0312 130.085 25.2386 129.017 25.2386C128.034 25.2386 127.151 25.0597 126.366 24.7017C125.588 24.3437 124.972 23.8239 124.517 23.142C124.068 22.4545 123.844 21.6193 123.844 20.6364H126.46C126.46 21.1193 126.571 21.5369 126.793 21.8892C127.02 22.2415 127.33 22.517 127.722 22.7159C128.119 22.9091 128.574 23.0057 129.085 23.0057C129.642 23.0057 130.114 22.8892 130.5 22.6562C130.892 22.4176 131.19 22.0682 131.395 21.608C131.599 21.1477 131.702 20.5852 131.702 19.9205V7.54545ZM143.469 25.2642C142.242 25.2642 141.171 24.983 140.256 24.4205C139.342 23.858 138.631 23.071 138.126 22.0597C137.62 21.0483 137.367 19.8665 137.367 18.5142C137.367 17.1562 137.62 15.9687 138.126 14.9517C138.631 13.9347 139.342 13.1449 140.256 12.5824C141.171 12.0199 142.242 11.7386 143.469 11.7386C144.697 11.7386 145.768 12.0199 146.683 12.5824C147.597 13.1449 148.308 13.9347 148.813 14.9517C149.319 15.9687 149.572 17.1562 149.572 18.5142C149.572 19.8665 149.319 21.0483 148.813 22.0597C148.308 23.071 147.597 23.858 146.683 24.4205C145.768 24.983 144.697 25.2642 143.469 25.2642ZM143.478 23.125C144.273 23.125 144.933 22.9148 145.455 22.4943C145.978 22.0739 146.364 21.5142 146.614 20.8153C146.87 20.1165 146.998 19.3466 146.998 18.5057C146.998 17.6705 146.87 16.9034 146.614 16.2045C146.364 15.5 145.978 14.9347 145.455 14.5085C144.933 14.0824 144.273 13.8693 143.478 13.8693C142.677 13.8693 142.012 14.0824 141.484 14.5085C140.961 14.9347 140.572 15.5 140.316 16.2045C140.066 16.9034 139.941 17.6705 139.941 18.5057C139.941 19.3466 140.066 20.1165 140.316 20.8153C140.572 21.5142 140.961 22.0739 141.484 22.4943C142.012 22.9148 142.677 23.125 143.478 23.125ZM152.621 25V7.54545H155.169V14.0312H155.322C155.47 13.7585 155.683 13.4432 155.962 13.0852C156.24 12.7273 156.626 12.4148 157.121 12.1477C157.615 11.875 158.268 11.7386 159.081 11.7386C160.138 11.7386 161.081 12.0057 161.911 12.5398C162.74 13.0739 163.391 13.8437 163.862 14.8494C164.339 15.8551 164.578 17.0653 164.578 18.4801C164.578 19.8949 164.342 21.108 163.871 22.1193C163.399 23.125 162.751 23.9006 161.928 24.446C161.104 24.9858 160.163 25.2557 159.107 25.2557C158.311 25.2557 157.661 25.1222 157.155 24.8551C156.655 24.5881 156.263 24.2756 155.979 23.9176C155.695 23.5597 155.476 23.2415 155.322 22.9631H155.109V25H152.621ZM155.118 18.4545C155.118 19.375 155.251 20.1818 155.518 20.875C155.786 21.5682 156.172 22.1108 156.678 22.5028C157.183 22.8892 157.803 23.0824 158.536 23.0824C159.297 23.0824 159.933 22.8807 160.445 22.4773C160.956 22.0682 161.342 21.5142 161.604 20.8153C161.871 20.1165 162.004 19.3295 162.004 18.4545C162.004 17.5909 161.874 16.8153 161.612 16.1278C161.357 15.4403 160.97 14.8977 160.453 14.5C159.942 14.1023 159.303 13.9034 158.536 13.9034C157.797 13.9034 157.172 14.0937 156.661 14.4744C156.155 14.8551 155.771 15.3864 155.51 16.0682C155.249 16.75 155.118 17.5455 155.118 18.4545ZM177.249 15.1051L174.94 15.5142C174.843 15.2187 174.69 14.9375 174.479 14.6705C174.275 14.4034 173.996 14.1847 173.644 14.0142C173.292 13.8437 172.852 13.7585 172.323 13.7585C171.602 13.7585 170.999 13.9205 170.516 14.2443C170.033 14.5625 169.792 14.9744 169.792 15.4801C169.792 15.9176 169.954 16.2699 170.278 16.5369C170.602 16.804 171.124 17.0227 171.846 17.1932L173.925 17.6705C175.13 17.9489 176.028 18.3778 176.619 18.9574C177.21 19.5369 177.505 20.2898 177.505 21.2159C177.505 22 177.278 22.6989 176.823 23.3125C176.374 23.9205 175.746 24.3977 174.94 24.7443C174.138 25.0909 173.21 25.2642 172.153 25.2642C170.687 25.2642 169.491 24.9517 168.565 24.3267C167.638 23.696 167.07 22.8011 166.86 21.642L169.323 21.267C169.477 21.9091 169.792 22.3949 170.269 22.7244C170.746 23.0483 171.369 23.2102 172.136 23.2102C172.971 23.2102 173.638 23.0369 174.138 22.6903C174.638 22.3381 174.888 21.9091 174.888 21.4034C174.888 20.9943 174.735 20.6506 174.428 20.3722C174.127 20.0937 173.664 19.8835 173.039 19.7415L170.823 19.2557C169.602 18.9773 168.698 18.5341 168.113 17.9261C167.533 17.3182 167.244 16.5483 167.244 15.6165C167.244 14.8437 167.46 14.1676 167.891 13.5881C168.323 13.0085 168.92 12.5568 169.681 12.233C170.442 11.9034 171.315 11.7386 172.298 11.7386C173.712 11.7386 174.826 12.0455 175.638 12.6591C176.451 13.267 176.988 14.0824 177.249 15.1051Z" fill="white"/>
<defs>
<clipPath id="clip0_502_893">
<rect width="112.566" height="28.3077" fill="white" transform="translate(1.21692 1.84619)"/>
</clipPath>
</defs>
</svg>
